<svg width="176" height="176" viewBox="0 0 176 176" fill="none" xmlns="http://www.w3.org/2000/svg">
<rect width="176" height="176" fill="white"/>
<path d="M134.247 31.64C135.023 32.3377 135.795 33.0401 136.562 33.7482C137.359 34.4761 138.163 35.1569 139.009 35.8244C140.683 37.2753 142.07 38.8863 143.486 40.5863C143.773 40.9244 144.06 41.2626 144.355 41.611C148.711 46.8744 152.051 52.643 154.891 58.8353C155.083 59.2522 155.083 59.2522 155.278 59.6775C163.004 76.8613 162.63 96.9231 156.119 114.391C153.148 122.017 148.918 129.362 143.486 135.481C143.277 135.72 143.068 135.959 142.853 136.205C139.819 139.662 136.682 142.747 132.992 145.518C132.749 145.702 132.506 145.886 132.255 146.075C125.659 151.029 118.822 154.543 111.094 157.38C110.583 157.568 110.072 157.756 109.545 157.95C91.3647 164.05 71.5302 161.549 54.5217 153.274C48.9507 150.457 44.173 146.856 39.4663 142.781C39.0181 142.397 38.57 142.014 38.1083 141.619C24.5795 129.766 16.4255 111.711 14.8301 93.9646C14.0075 80.7681 16.2687 67.9824 22.1297 56.0979C22.2745 55.8028 22.4192 55.5076 22.5683 55.2035C24.521 51.2719 26.7241 47.7065 29.4293 44.2361C29.8016 43.7244 29.8016 43.7244 30.1814 43.2024C35.3394 36.3407 41.7919 30.5302 49.047 25.9871C49.3369 25.8022 49.6269 25.6174 49.9256 25.427C57.2497 20.821 65.654 17.598 74.1394 15.9501C74.6405 15.8484 75.1415 15.7466 75.6578 15.6418C96.18 12.198 118.508 17.9574 134.247 31.64Z" fill="#6E56FF"/>
<path d="M87.0276 20.7688C87.3663 20.7683 87.7049 20.7678 88.0539 20.7673C94.2806 20.7802 100.068 21.55 106.075 23.2495C106.439 23.3472 106.802 23.4448 107.177 23.5454C115.256 25.7538 122.919 29.7448 129.342 35.1114C129.832 35.5045 130.322 35.8972 130.813 36.2894C141.924 45.2949 149.571 57.7733 153.066 71.6094C153.263 72.3531 153.263 72.3531 153.464 73.1117C157.616 89.1042 154.558 106.97 146.479 121.219C136.743 137.701 121.663 148.761 103.195 153.603C97.9554 154.944 92.9586 155.208 87.5694 155.213C87.2431 155.213 86.9169 155.213 86.5808 155.214C81.8358 155.206 77.3772 155.013 72.7706 153.73C72.298 153.605 72.298 153.605 71.816 153.478C67.5867 152.359 63.5181 151.005 59.54 149.168C59.0913 148.962 58.6426 148.756 58.1803 148.544C52.7867 145.962 48.0924 142.566 43.5721 138.675C43.1481 138.312 42.7241 137.95 42.2872 137.577C39.3371 134.984 36.8197 132.222 34.4476 129.094C34.1771 128.739 33.9066 128.385 33.6279 128.019C29.6715 122.602 26.6597 116.693 24.4107 110.389C24.2431 109.923 24.0755 109.458 23.9028 108.979C22.8725 105.888 22.1883 102.745 21.5593 99.5532C21.4392 98.9541 21.4392 98.9541 21.3167 98.3429C20.8356 95.7765 20.6869 93.3816 20.7609 90.7709C22.8044 90.7577 24.8479 90.7495 26.8914 90.7424C27.4751 90.7385 28.0588 90.7347 28.6602 90.7308C29.2145 90.7293 29.7687 90.7278 30.3398 90.7263C31.1103 90.7227 31.1103 90.7227 31.8964 90.7191C33.079 90.7709 33.079 90.7709 33.5352 91.2271C33.6245 92.0816 33.711 92.9365 33.7832 93.7927C34.9962 107.766 41.803 120.664 52.2404 130.006C64.7035 140.478 79.2797 144.392 95.3624 143.148C100.715 142.582 105.701 140.749 110.637 138.675C110.93 138.552 111.222 138.43 111.523 138.304C123.86 132.998 133.655 122.15 138.923 109.932C144.599 95.2813 144.279 80.9659 138.011 66.5909C135.876 61.8686 133.136 57.7683 129.799 53.8166C129.602 53.5808 129.405 53.345 129.202 53.102C120.007 42.216 106.016 35.3407 91.932 33.7427C88.591 33.5049 85.241 33.5197 81.8933 33.5093C80.9531 33.5015 80.0129 33.4933 79.0727 33.4844C76.6255 33.463 74.1783 33.4492 71.731 33.4372C69.2228 33.4235 66.7147 33.4024 64.2065 33.3818C59.3054 33.3428 54.4043 33.312 49.5031 33.2865C54.5867 28.0289 62.8236 25.2018 69.691 23.107C70.0519 22.9963 70.4128 22.8857 70.7846 22.7717C76.1585 21.2042 81.4589 20.7671 87.0276 20.7688Z" fill="#FF6B6B"/>
<path d="M52.8267 38.6791C53.9148 38.685 55.0029 38.6889 56.091 38.6908C58.3681 38.6999 60.6442 38.7251 62.921 38.7636C65.8175 38.8124 68.7132 38.834 71.6099 38.8449C74.3974 38.8565 77.1847 38.8812 79.9721 38.9073C80.7539 38.9132 80.7539 38.9132 81.5514 38.9192C89.294 38.9912 97.1485 39.1291 104.364 42.2684C104.743 42.4268 105.121 42.5853 105.511 42.7486C110.758 45.0004 115.435 47.7819 119.762 51.5354C120.136 51.8436 120.51 52.1518 120.895 52.4693C130.046 60.2558 136.216 72.5008 137.555 84.3836C138.282 96.8745 135.418 109.632 127.065 119.315C125.739 120.794 124.353 122.208 122.955 123.619C122.675 123.927 122.394 124.235 122.105 124.553C114.973 132.269 103.051 137.176 92.69 137.863C86.1626 138.076 79.8723 138.194 73.683 135.937C73.2221 135.776 73.2221 135.776 72.7518 135.611C64.947 132.837 58.4893 128.598 52.6966 122.707C52.3167 122.326 51.9368 121.946 51.5454 121.554C48.8575 118.723 46.8503 115.608 44.9408 112.213C44.5668 111.551 44.5668 111.551 44.1852 110.875C40.8115 104.532 39.4661 98.407 39.4661 91.227C43.3805 91.227 47.2949 91.227 51.328 91.227C51.4973 92.215 51.6667 93.203 51.8412 94.221C53.4638 102.716 57.5755 109.784 63.646 115.863C63.9125 116.135 64.1789 116.407 64.4533 116.687C70.8894 122.715 80.3202 125.708 88.9844 125.603C99.3944 125.26 108.725 121.068 115.953 113.488C123.221 104.842 125.952 94.6113 125.236 83.4712C124.151 74.232 118.603 65.1526 111.443 59.3821C103.901 53.8246 96.121 51.4853 86.9119 51.4418C86.3196 51.4372 85.7273 51.4327 85.117 51.4281C83.5007 51.4158 81.8844 51.4062 80.268 51.397C78.5759 51.387 76.8838 51.3746 75.1917 51.3623C71.991 51.3396 68.7903 51.3191 65.5896 51.2994C61.9441 51.2768 58.2988 51.2518 54.6534 51.2265C47.1578 51.1747 39.6621 51.1259 32.1665 51.0792C33.1243 49.1168 34.288 47.4118 35.6199 45.6799C36.3188 44.7697 36.996 43.842 37.6403 42.8924C41.671 37.8254 46.795 38.5493 52.8267 38.6791Z" fill="#E4E7FF"/>
<path d="M28.0604 57.0104C36.4405 56.9569 44.8207 56.9168 53.201 56.8922C57.0928 56.8805 60.9845 56.8645 64.8763 56.8383C68.2715 56.8154 71.6667 56.8008 75.062 56.7957C76.857 56.7928 78.6517 56.7859 80.4466 56.7692C94.7586 56.6408 94.7586 56.6408 100.6 59.2915C101.263 59.5719 101.263 59.5719 101.939 59.858C104.896 61.1556 107.308 63.1089 109.725 65.2224C110.006 65.46 110.287 65.6976 110.577 65.9424C115.646 70.5682 119.437 77.9598 119.81 84.8236C120.075 94.1071 118.459 101.909 112.309 109.163C111.55 109.932 111.55 109.932 110.637 110.389C110.647 110.084 110.656 109.779 110.666 109.465C111.01 96.7873 108.857 86.9224 100.039 77.348C91.0936 68.6576 80.1359 67.6068 68.2238 67.6364C66.6614 67.6378 65.0991 67.6263 63.5367 67.6163C60.5931 67.5994 57.6495 67.5937 54.7058 67.5923C51.3482 67.5901 47.9907 67.5751 44.6332 67.559C37.7402 67.5264 30.8474 67.5096 23.9543 67.5035C24.9072 63.8009 26.3967 60.4455 28.0604 57.0104Z" fill="#FFE7E7"/>
<path d="M22.1294 73.4343C29.633 73.3916 37.1367 73.3594 44.6404 73.3398C48.1252 73.3304 51.6098 73.3176 55.0945 73.2967C58.1345 73.2784 61.1745 73.2667 64.2146 73.2626C65.8218 73.2603 67.4289 73.2548 69.036 73.2414C70.8375 73.2265 72.6389 73.2263 74.4404 73.2272C74.9635 73.2206 75.4866 73.214 76.0256 73.2073C84.0138 73.2473 91.03 76.3169 96.7525 81.8317C103.273 88.781 105.593 97.4249 105.321 106.765C105.153 109.87 104.72 113.053 103.337 115.863C101.624 117.267 99.9024 118.039 97.8057 118.715C97.3435 118.868 96.8812 119.02 96.405 119.178C95.1254 119.513 95.1254 119.513 93.3005 119.513C93.3664 119.23 93.4322 118.947 93.5001 118.656C95.1367 110.848 94.3387 103.536 90.1069 96.7018C86.2434 91.5052 80.7832 87.366 74.3763 85.9604C72.1439 85.6713 69.9343 85.6711 67.6853 85.6587C66.9238 85.652 66.9238 85.652 66.1469 85.6451C64.4732 85.6307 62.7996 85.6193 61.1259 85.6081C59.9638 85.5987 58.8016 85.5891 57.6395 85.5793C54.896 85.5567 52.1525 85.5361 49.409 85.5164C46.2844 85.4938 43.1598 85.4687 40.0352 85.4435C33.6103 85.3917 27.1855 85.3429 20.7607 85.2962C20.6788 82.369 20.8417 79.6634 21.445 76.799C21.5103 76.4714 21.5756 76.1438 21.6428 75.8063C21.8011 75.0149 21.9647 74.2245 22.1294 73.4343Z" fill="#E4E7FF"/>
<path d="M57.259 91.2274C59.4328 91.1704 61.6062 91.1293 63.7805 91.1021C64.5177 91.0908 65.2547 91.0753 65.9917 91.0553C72.3182 90.8886 77.5083 91.8072 82.3514 96.2459C85.6333 99.3805 88.5739 103.544 88.8152 108.225C88.8354 112.221 88.8252 115.891 86.9137 119.513C79.86 119.927 73.6925 117.219 68.3492 112.697C67.8279 112.232 67.8279 112.232 67.296 111.758C66.9719 111.471 66.6479 111.185 66.314 110.89C62.8399 107.629 60.6217 103.82 58.9128 99.411C58.7984 99.1207 58.6839 98.8305 58.566 98.5315C57.6897 96.1303 57.4275 93.7695 57.259 91.2274Z" fill="#FFE7E7"/>
</svg>
