<svg width="300" height="300" viewBox="0 0 300 300" fill="none" xmlns="http://www.w3.org/2000/svg">
<rect width="300" height="300" fill="black"/>
<path d="M228.83 53.9316C230.153 55.1209 231.469 56.3183 232.776 57.5252C234.134 58.7659 235.505 59.9264 236.947 61.0642C239.8 63.5373 242.165 66.2833 244.578 69.181C245.067 69.7574 245.556 70.3338 246.06 70.9277C253.485 79.8994 259.178 89.7322 264.019 100.287C264.345 100.998 264.345 100.998 264.678 101.723C277.848 131.013 277.209 165.21 266.112 194.985C261.047 207.984 253.837 220.503 244.578 230.934C244.222 231.341 243.866 231.748 243.499 232.167C238.327 238.06 232.981 243.318 226.692 248.042C226.277 248.355 225.862 248.669 225.434 248.992C214.191 257.435 202.538 263.426 189.364 268.261C188.493 268.582 187.622 268.903 186.724 269.233C155.735 279.631 121.926 275.368 92.9346 261.262C83.4385 256.46 75.2947 250.322 67.2719 243.376C66.5081 242.722 65.7442 242.069 64.9572 241.395C41.8968 221.191 27.998 190.417 25.2785 160.167C23.8763 137.673 27.7305 115.879 37.721 95.6213C37.9677 95.1182 38.2144 94.6151 38.4686 94.0967C41.797 87.3952 45.5523 81.3177 50.1635 75.4022C50.798 74.5301 50.798 74.5301 51.4454 73.6404C60.2374 61.9442 71.236 52.04 83.6027 44.296C84.0969 43.981 84.5911 43.6659 85.1003 43.3414C97.5846 35.4902 111.91 29.9965 126.374 27.1875C127.228 27.0141 128.082 26.8407 128.962 26.662C163.943 20.7919 202.002 30.6091 228.83 53.9316Z" fill="#E7C77D"/>
<path d="M148.343 35.4015C148.92 35.4007 149.497 35.3998 150.092 35.399C160.706 35.4209 170.571 36.733 180.81 39.63C181.43 39.7964 182.05 39.9628 182.688 40.1343C196.459 43.8986 209.521 50.7014 220.47 59.8491C221.305 60.5192 222.14 61.1885 222.976 61.857C241.916 77.2074 254.95 98.4773 260.908 122.062C261.244 123.329 261.244 123.329 261.586 124.622C268.663 151.882 263.452 182.335 249.681 206.623C233.084 234.718 207.38 253.57 175.9 261.824C166.97 264.11 158.452 264.559 149.266 264.567C148.71 264.568 148.154 264.568 147.581 264.569C139.493 264.557 131.893 264.227 124.041 262.04C123.235 261.827 123.235 261.827 122.414 261.61C115.205 259.702 108.27 257.396 101.489 254.263C100.724 253.912 99.9591 253.562 99.1711 253.2C89.9774 248.799 81.9758 243.01 74.2709 236.377C73.5481 235.76 72.8253 235.142 72.0807 234.506C67.052 230.086 62.7611 225.378 58.7177 220.046C58.2566 219.442 57.7955 218.837 57.3204 218.215C50.5765 208.98 45.4428 198.908 41.6093 188.162C41.3236 187.369 41.0379 186.577 40.7435 185.76C38.9873 180.491 37.8212 175.134 36.7489 169.693C36.5442 168.672 36.5442 168.672 36.3354 167.63C35.5155 163.256 35.2619 159.173 35.388 154.723C38.8713 154.701 42.3545 154.687 45.8378 154.675C46.8327 154.668 47.8277 154.662 48.8527 154.655C49.7975 154.652 50.7423 154.65 51.7158 154.647C53.0292 154.641 53.0292 154.641 54.369 154.635C56.3848 154.723 56.3848 154.723 57.1624 155.501C57.3147 156.957 57.4622 158.415 57.5852 159.874C59.6528 183.691 71.2553 205.677 89.0463 221.602C110.29 239.451 135.136 246.122 162.55 244.002C171.674 243.037 180.172 239.912 188.586 236.377C189.085 236.169 189.583 235.96 190.096 235.746C211.124 226.702 227.821 208.21 236.801 187.385C246.475 162.411 245.931 138.01 235.246 113.507C231.607 105.458 226.937 98.4688 221.248 91.733C220.912 91.331 220.576 90.929 220.23 90.5149C204.558 71.9592 180.709 60.2399 156.702 57.5161C151.008 57.1107 145.297 57.136 139.591 57.1182C137.988 57.105 136.386 57.0909 134.783 57.0759C130.612 57.0393 126.44 57.0159 122.269 56.9954C117.994 56.9721 113.718 56.9359 109.443 56.901C101.089 56.8345 92.7347 56.7819 84.3804 56.7385C93.0456 47.7767 107.086 42.9577 118.792 39.387C119.407 39.1984 120.022 39.0098 120.656 38.8155C129.816 36.1436 138.851 35.3986 148.343 35.4015Z" fill="#020201"/>
<path d="M90.0459 65.9306C91.9006 65.9406 93.7552 65.9472 95.6099 65.9505C99.4914 65.9659 103.371 66.009 107.252 66.0745C112.189 66.1577 117.125 66.1946 122.063 66.2132C126.814 66.2328 131.565 66.2749 136.316 66.3194C137.649 66.3295 137.649 66.3295 139.008 66.3399C152.206 66.4624 165.594 66.6975 177.894 72.0486C178.539 72.3187 179.184 72.5889 179.848 72.8672C188.792 76.7054 196.765 81.4466 204.14 87.8447C204.777 88.37 205.415 88.8953 206.072 89.4365C221.669 102.709 232.186 123.581 234.468 143.836C235.708 165.127 230.826 186.873 216.588 203.378C214.328 205.9 211.966 208.309 209.583 210.714C209.105 211.24 208.627 211.765 208.134 212.306C195.977 225.459 175.656 233.824 157.995 234.994C146.868 235.357 136.146 235.559 125.596 231.711C124.811 231.436 124.811 231.436 124.009 231.155C110.705 226.427 99.698 219.201 89.8241 209.159C89.1766 208.511 88.529 207.862 87.8618 207.194C83.2801 202.37 79.8587 197.059 76.604 191.273C75.9664 190.144 75.9664 190.144 75.316 188.992C69.5653 178.18 67.2721 167.74 67.2721 155.501C73.9444 155.501 80.6167 155.501 87.4912 155.501C87.7799 157.185 88.0686 158.869 88.366 160.604C91.1318 175.084 98.1404 187.131 108.488 197.494C108.942 197.957 109.396 198.421 109.864 198.898C120.834 209.174 136.91 214.275 151.678 214.096C169.423 213.511 185.328 206.366 197.648 193.445C210.036 178.707 214.692 161.269 213.472 142.281C211.621 126.532 202.164 111.056 189.96 101.22C177.105 91.7468 163.843 87.7592 148.146 87.685C147.136 87.6773 146.126 87.6696 145.086 87.6617C142.331 87.6408 139.576 87.6244 136.821 87.6088C133.937 87.5918 131.052 87.5705 128.168 87.5497C122.712 87.511 117.256 87.476 111.801 87.4424C105.587 87.4039 99.3732 87.3612 93.1595 87.3182C80.3829 87.2298 67.6062 87.1467 54.8296 87.0671C56.4622 83.722 58.4458 80.8157 60.716 77.8637C61.9074 76.3123 63.0616 74.7309 64.1599 73.1123C71.0305 64.4753 79.7645 65.7093 90.0459 65.9306Z" fill="#020101"/>
<path d="M47.8305 97.1766C62.1148 97.0854 76.3991 97.017 90.6837 96.9751C97.3175 96.9552 103.951 96.928 110.585 96.8833C116.372 96.8443 122.159 96.8194 127.947 96.8108C131.006 96.8057 134.066 96.794 137.125 96.7655C161.521 96.5467 161.521 96.5467 171.478 101.065C172.608 101.543 172.608 101.543 173.76 102.031C178.801 104.242 182.912 107.572 187.031 111.174C187.51 111.579 187.989 111.984 188.483 112.402C197.125 120.287 203.586 132.886 204.223 144.586C204.674 160.41 201.92 173.709 191.436 186.072C190.142 187.385 190.142 187.385 188.586 188.162C188.603 187.643 188.619 187.123 188.636 186.588C189.221 164.978 185.551 148.163 170.521 131.843C155.273 117.03 136.596 115.239 116.291 115.289C113.628 115.292 110.965 115.272 108.302 115.255C103.284 115.226 98.2665 115.216 93.2489 115.214C87.5257 115.21 81.8026 115.185 76.0795 115.157C64.3302 115.102 52.581 115.073 40.8315 115.063C42.4557 108.751 44.9946 103.032 47.8305 97.1766Z" fill="#010100"/>
<path d="M37.7208 125.172C50.5112 125.099 63.3015 125.045 76.092 125.011C82.0319 124.995 87.9716 124.973 93.9115 124.938C99.0933 124.906 104.275 124.886 109.457 124.88C112.197 124.876 114.936 124.866 117.675 124.843C120.746 124.818 123.817 124.818 126.887 124.819C127.779 124.808 128.671 124.797 129.589 124.785C143.206 124.854 155.165 130.086 164.919 139.486C176.033 151.331 179.988 166.065 179.525 181.987C179.238 187.279 178.501 192.704 176.144 197.494C173.223 199.887 170.289 201.203 166.715 202.355C165.927 202.615 165.139 202.876 164.327 203.144C162.146 203.716 162.146 203.716 159.035 203.716C159.148 203.233 159.26 202.751 159.375 202.254C162.165 188.945 160.805 176.481 153.592 164.833C147.006 155.975 137.699 148.919 126.778 146.524C122.973 146.031 119.207 146.03 115.373 146.009C114.075 145.998 114.075 145.998 112.751 145.986C109.898 145.961 107.045 145.942 104.192 145.923C102.211 145.907 100.23 145.891 98.2494 145.874C93.573 145.835 88.8966 145.8 84.2202 145.767C78.8942 145.728 73.5681 145.685 68.2421 145.642C57.2907 145.554 46.3393 145.471 35.3879 145.391C35.2482 140.402 35.526 135.79 36.5543 130.907C36.6656 130.349 36.7769 129.791 36.8915 129.215C37.1614 127.866 37.4401 126.519 37.7208 125.172Z" fill="#020101"/>
<path d="M97.6006 155.501C101.306 155.404 105.01 155.334 108.717 155.287C109.973 155.268 111.23 155.242 112.486 155.208C123.27 154.923 132.116 156.489 140.372 164.055C145.966 169.398 150.978 176.496 151.39 184.475C151.424 191.285 151.407 197.541 148.148 203.716C136.125 204.42 125.612 199.805 116.504 192.096C115.616 191.304 115.616 191.304 114.709 190.495C114.157 190.007 113.604 189.519 113.035 189.016C107.114 183.458 103.332 176.965 100.42 169.45C100.224 168.955 100.029 168.461 99.8284 167.951C98.3347 163.858 97.8877 159.834 97.6006 155.501Z" fill="#010100"/>
</svg>
